<svg id="_krilla" data-name="$krilla" xmlns="http://www.w3.org/2000/svg" viewBox="0 0 638.13 102.25"><defs><style>.cls-1{fill:#030303;}</style></defs><path class="cls-1" d="M389.19,198H376.9a1.52,1.52,0,0,0-1.18.51,1.63,1.63,0,0,0-.46,1.12v7.89a1.44,1.44,0,0,0,.46,1.07,1.6,1.6,0,0,0,1.18.47h15.46a2.84,2.84,0,0,1,1.74.61,3.13,3.13,0,0,1,1.13,1.54l5.12,19a2.27,2.27,0,0,0,.82,1.08,2.21,2.21,0,0,0,1.33.46h10.44a1.09,1.09,0,0,0,1.23-1.23v-.21l-18.84-68.81a2.07,2.07,0,0,0-.92-1.07,2.48,2.48,0,0,0-1.33-.46h-22a2.14,2.14,0,0,0-1.28.51,2.46,2.46,0,0,0-.87,1.13l-6.45,23.65a1.46,1.46,0,0,0,.15,1.23,1.38,1.38,0,0,0,1,.72l9.62,2.35a1.64,1.64,0,0,0,1.28-.1,1.63,1.63,0,0,0,.77-.92l3.79-13.73a2.63,2.63,0,0,1,1-1.43,2.72,2.72,0,0,1,1.64-.61h.72a2.86,2.86,0,0,1,1.74.61,2.53,2.53,0,0,1,1,1.43l5.74,20.89a1.55,1.55,0,0,1-.26,1.59A1.82,1.82,0,0,1,389.19,198Z" transform="translate(-94.22 -134.8)"/><path class="cls-1" d="M345.42,158a2,2,0,0,0-1.53-.67h-11a2.29,2.29,0,0,0-2.14,2.14v67.25a2,2,0,0,0,.66,1.53,2.14,2.14,0,0,0,1.48.61h39.9a2,2,0,0,0,1.53-.61,2.08,2.08,0,0,0,.62-1.53V218a1.94,1.94,0,0,0-.62-1.43,2,2,0,0,0-1.53-.62H348.07a1.86,1.86,0,0,1-1.43-.66,2.11,2.11,0,0,1-.61-1.48V159.51A2.15,2.15,0,0,0,345.42,158Z" transform="translate(-94.22 -134.8)"/><path class="cls-1" d="M301.73,158.6a2,2,0,0,0-1.53-.67h-11a2.05,2.05,0,0,0-1.48.67,2,2,0,0,0-.67,1.48v67.24a2,2,0,0,0,.67,1.53,2.12,2.12,0,0,0,1.48.62h30.67a2.08,2.08,0,0,0,1.53-.62,2,2,0,0,0,.61-1.53v-8.77a2,2,0,0,0-.61-1.43,2.07,2.07,0,0,0-1.53-.61H304.38a1.87,1.87,0,0,1-1.43-.67,2.11,2.11,0,0,1-.61-1.48V160.08A2.11,2.11,0,0,0,301.73,158.6Z" transform="translate(-94.22 -134.8)"/><path class="cls-1" d="M166.8,197.94a1.75,1.75,0,0,0-1.42.81l-2.15,2.55c-.68.75-1.38,1.55-2.09,2.4s-1.34,1.58-1.89,2.2a3.16,3.16,0,0,0-.81,1.94,3.68,3.68,0,0,0,.71,1.83L170,225.08a3.89,3.89,0,0,0,1.58,1.38,8.88,8.88,0,0,0,3.11.56h10.41c1.22-.07,1.84-.54,1.84-1.43a1.6,1.6,0,0,0-.21-.71l-18.37-26A1.76,1.76,0,0,0,166.8,197.94Z" transform="translate(-94.22 -134.8)"/><path class="cls-1" d="M187.21,155.9c-.13-.28-.58-.41-1.32-.41h-14.6a2.79,2.79,0,0,0-2.24,1.12L148.33,180.9s.55,20.58,1.64,19.28l37.14-43.47A.7.7,0,0,0,187.21,155.9Z" transform="translate(-94.22 -134.8)"/><path class="cls-1" d="M243.07,229.47c1,0,1.43-.38,1.43-1.13a2.71,2.71,0,0,0-.41-1.32l-11.84-26.43a4.18,4.18,0,0,1-.1-1,1.19,1.19,0,0,1,.61-1,22.64,22.64,0,0,0,6.58-7.86,21.66,21.66,0,0,0,2.4-10,21.9,21.9,0,0,0-3.11-11.43,23.08,23.08,0,0,0-8.42-8.26,22.8,22.8,0,0,0-11.63-3.07H197.45a1.95,1.95,0,0,0-1.94,1.94V176.3a2.46,2.46,0,0,0,.77,1.79,2.44,2.44,0,0,0,1.79.76h6.73a2.41,2.41,0,0,0,1.84-.76,2.57,2.57,0,0,0,.71-1.79v-2.55a2.48,2.48,0,0,1,.77-1.79,2.56,2.56,0,0,1,1.88-.76h8.58a9.43,9.43,0,0,1,6.88,2.76,9,9,0,0,1,2.81,6.73,8.9,8.9,0,0,1-2.81,6.63,9.43,9.43,0,0,1-6.88,2.76H197.45a1.87,1.87,0,0,0-1.37.56,1.85,1.85,0,0,0-.57,1.38v35.61a1.7,1.7,0,0,0,.57,1.33,2,2,0,0,0,1.37.51h8a2,2,0,0,0,1.38-.51,1.72,1.72,0,0,0,.56-1.33V205.18a1.51,1.51,0,0,1,.67-1.48,4,4,0,0,1,1.88-.36h8.68a6.36,6.36,0,0,1,2,.21,1.56,1.56,0,0,1,.81.81l10.62,23.88a1.83,1.83,0,0,0,1,1,5,5,0,0,0,1.68.21Z" transform="translate(-94.22 -134.8)"/><path class="cls-1" d="M269.26,231.11a1.84,1.84,0,0,0,.51-1.27V162.08a1.91,1.91,0,0,0-.56-1.38,1.76,1.76,0,0,0-1.27-.56H257.73a2,2,0,0,0-1.33.56,1.84,1.84,0,0,0-.61,1.38v67.76a1.76,1.76,0,0,0,.56,1.27,1.87,1.87,0,0,0,1.38.56h10.21A1.68,1.68,0,0,0,269.26,231.11Z" transform="translate(-94.22 -134.8)"/><path class="cls-1" d="M118.29,193.94l-6-2.08-.26-.11v27.08a12.62,12.62,0,0,0,6.28,2.21Z" transform="translate(-94.22 -134.8)"/><path class="cls-1" d="M112,234.43a5.24,5.24,0,0,0,.3,1.83c.21.53.46.8.76.8h4.21c.3,0,.54-.27.73-.8a5.5,5.5,0,0,0,.28-1.83v-3.52a36.24,36.24,0,0,1-6.28-.59Z" transform="translate(-94.22 -134.8)"/><path class="cls-1" d="M112,158.76v18.46a22.75,22.75,0,0,0,6.28,3.76V156.46A10.77,10.77,0,0,0,112,158.76Z" transform="translate(-94.22 -134.8)"/><path class="cls-1" d="M118.29,137.58a5.39,5.39,0,0,0-.31-2c-.2-.54-.44-.81-.7-.81h-4.21c-.26,0-.5.27-.73.81a5.17,5.17,0,0,0-.33,2v10.08a33.06,33.06,0,0,1,6.28-.93Z" transform="translate(-94.22 -134.8)"/><path class="cls-1" d="M123.6,236.26c.2.53.46.8.76.8h3.83c.29,0,.54-.27.72-.8a5.5,5.5,0,0,0,.28-1.83v-4.69a37.59,37.59,0,0,1-5.9,1v3.69A5,5,0,0,0,123.6,236.26Z" transform="translate(-94.22 -134.8)"/><path class="cls-1" d="M123.29,156.89v26l5.9,2.15V161.4A8.63,8.63,0,0,0,123.29,156.89Z" transform="translate(-94.22 -134.8)"/><path class="cls-1" d="M129.19,137.58a5.63,5.63,0,0,0-.3-2c-.21-.54-.44-.81-.7-.81h-3.83c-.27,0-.51.27-.73.81a5,5,0,0,0-.34,2v9.17a33.75,33.75,0,0,1,5.9.84Z" transform="translate(-94.22 -134.8)"/><path class="cls-1" d="M129.19,218V199.28a16.12,16.12,0,0,0-5.9-3.62V220.9A11.4,11.4,0,0,0,129.19,218Z" transform="translate(-94.22 -134.8)"/><path class="cls-1" d="M552.61,224.79c2.49,0,5,0,7.47,0,2.29,0,2.71-.32,3.4-2.45,1-3.12,2-6.24,3-9.35a2.78,2.78,0,0,1,3-2.26q9.54,0,19.08,0a2.83,2.83,0,0,1,3,2.29c.35,1.13.61,2.28.91,3.42,1.29,4.88,2.6,9.74,3.85,14.63.31,1.23.92,2.06,2.23,2.07q4.82.08,9.63,0c1.08,0,1.35-.41,1.24-1.51a6.07,6.07,0,0,0-.21-1q-8.67-33-17.36-65.91c-.59-2.27-1-2.57-3.25-2.57H569.39c-2.17,0-2.61.35-3.18,2.42q-1.46,5.31-2.87,10.62c-.11.42-.17.86-.26,1.36l11.29,6.64c.62-2.31,1.14-4.34,1.7-6.35a2.86,2.86,0,0,1,2.85-2.25,2.89,2.89,0,0,1,3.06,2.22c.2.62.36,1.26.53,1.89,1.64,6,3.29,12,4.9,18,.57,2.13-.07,3-2.2,3q-6.3.06-12.59,0c-1.79,0-2.38-.81-2-2.53.29-1.27.66-2.52,1-3.91l-11.36-6.71c-.22.67-.35,1-.45,1.4q-1.85,6.74-3.67,13.46l-5.64,20.65C549.92,224.44,550.2,224.78,552.61,224.79Z" transform="translate(-94.22 -134.8)"/><rect class="cls-1" x="328.05" y="53.74" width="38.68" height="14.91"/><path class="cls-1" d="M661.42,203.84a36.62,36.62,0,0,0,45.87,29.72C720.47,230.09,730.7,217.7,732,204a11.61,11.61,0,0,1,.35-1.5V197c-1-1.72-2.6-2.05-4.36-2.05q-10.83,0-21.64,0c-1.84,0-2.46.63-2.51,2.49-.05,2.1,0,4.19,0,6.29s.71,2.64,2.79,2.65c3.34,0,6.69,0,10,0h2a5,5,0,0,1-.16.94c-4.13,9.84-13.63,16.44-25.69,13.86a23.62,23.62,0,0,1-18.2-28.06c3-13.84,16.52-20.5,26.3-18.31,2.87.64,5.83.87,8.75,1.26,2,.27,2.64-.18,3-2.13q.75-3.85,1.45-7.72c.3-1.71.06-2.13-1.46-2.69-.43-.15-.88-.27-1.32-.4a57.63,57.63,0,0,0-10.45-1.68,36,36,0,0,0-13.23,1.19A36.71,36.71,0,0,0,661.42,203.84Z" transform="translate(-94.22 -134.8)"/><path class="cls-1" d="M608.85,204.87c.12,1.28.7,1.93,2,1.95,3.21.06,6.42.05,9.63,0a1.82,1.82,0,0,0,2-1.93,16,16,0,0,0,0-2c-.07-3-.16-6-.21-9,0-.53-.26-1.18.59-1.63.38.52.78,1,1.12,1.54q12.49,19.42,25,38.86l.75,1.16a2.43,2.43,0,0,0,2.14,1.17c4.65,0,9.31,0,14,0,1.59,0,2.09-.58,2.13-2.19.05-1.89,0-3.8,0-5.7a3.78,3.78,0,0,0-1.29-3.08,36.65,36.65,0,0,1-.84-51c1.58-1.68,2.41-3.28,2.11-5.51,0-.13,0-.26,0-.39,0-2.26-.53-2.76-2.81-2.77H651.36c-2.5,0-3,.5-3,3v.79q.07,18.68.12,37.35a16.36,16.36,0,0,1-.21,1.85l-.61.11c-.43-.62-.9-1.22-1.29-1.87Q635.22,187,624.1,168.51l-1.84-3a1.94,1.94,0,0,0-1.72-1.11c-3.21,0-6.42,0-9.63,0-1.33,0-1.95.77-2.06,2.14a11.62,11.62,0,0,0,0,1.18v36A11.62,11.62,0,0,0,608.85,204.87Z" transform="translate(-94.22 -134.8)"/><path class="cls-1" d="M523.7,233.56c13.25-3.5,23.54-15.95,24.84-29.72a10,10,0,0,1,.35-1.51v-5.54c-1-1.74-2.62-2.07-4.39-2.07q-10.87,0-21.76,0c-1.85,0-2.48.64-2.52,2.51-.05,2.1-.05,4.22,0,6.32s.72,2.66,2.81,2.67c3.36,0,6.72,0,10.09,0h2a6.49,6.49,0,0,1-.16,1c-4.16,9.89-13.7,16.53-25.84,13.93a23.76,23.76,0,0,1-18.31-28.22c3-13.91,16.62-20.62,26.46-18.41,2.88.64,5.86.88,8.8,1.27,2,.27,2.65-.19,3-2.14.5-2.59,1-5.18,1.45-7.77.31-1.72.06-2.15-1.47-2.7-.43-.16-.88-.28-1.32-.41A59.19,59.19,0,0,0,517.27,161a36.09,36.09,0,0,0-13.3,1.2,37,37,0,0,0,19.73,71.32Z" transform="translate(-94.22 -134.8)"/><path class="cls-1" d="M145.66,206.51c0-11.13-5-17.38-16.47-21.46l-5.9-2.15-2.84-1c-.76-.3-1.47-.59-2.16-.89a22.75,22.75,0,0,1-6.28-3.76c-2.57-2.32-3.71-5.16-3.71-9.1,0-4.54,1.49-7.54,3.71-9.36a10.77,10.77,0,0,1,6.28-2.3c.3,0,.61,0,.91,0a16.87,16.87,0,0,1,4.09.46,8.63,8.63,0,0,1,5.9,4.51,14.61,14.61,0,0,1,1.37,6.72v1.71H143.5V168c0-7-1.52-17.31-14.31-20.42a33.75,33.75,0,0,0-5.9-.84c-.88-.05-1.78-.09-2.73-.09-.77,0-1.52,0-2.27.07a33.06,33.06,0,0,0-6.28.93c-10.3,2.59-16.66,10.17-16.66,21.94,0,11.49,5,17.62,16.66,22.15l.26.11,6,2.08,2.84,1c.76.22,1.47.47,2.16.73a16.12,16.12,0,0,1,5.9,3.62c2.27,2.32,3.52,5.5,3.52,10.07a11.82,11.82,0,0,1-3.52,8.6,11.4,11.4,0,0,1-5.9,3,15,15,0,0,1-2.84.26,21.15,21.15,0,0,1-2.16-.12,12.62,12.62,0,0,1-6.28-2.21c-3.25-2.38-4.85-6.56-4.85-12.55v-2H94.22v1.93c0,9.93,3.47,21.42,17.79,24.15a36.24,36.24,0,0,0,6.28.59l.57,0c1.53,0,3-.07,4.43-.19a37.59,37.59,0,0,0,5.9-1C139.48,227.07,145.66,219.78,145.66,206.51Z" transform="translate(-94.22 -134.8)"/></svg>