<svg id="skrillatypewhite" xmlns="http://www.w3.org/2000/svg" viewBox="0 0 603.07 581.17"><defs><style>.cls-1{fill:#010101;}</style></defs><path class="cls-1" d="M176.69,414.53V454c1.28.57,2.63,1.13,4.08,1.69l1.42.51V414.63a31.08,31.08,0,0,0-3.44-.2C178.06,414.43,177.37,414.47,176.69,414.53Z" transform="translate(-130.47 -249.02)"/><path class="cls-1" d="M176.69,475v44a33.06,33.06,0,0,0,4.08.26c.49,0,.95,0,1.42-.06V476.91l-.31-.1Z" transform="translate(-130.47 -249.02)"/><path class="cls-1" d="M163.49,443.69V422.58a22.28,22.28,0,0,0-2.41,10.8A20.25,20.25,0,0,0,163.49,443.69Z" transform="translate(-130.47 -249.02)"/><path class="cls-1" d="M194.6,514.46a19.12,19.12,0,0,0,6.05-14.28c0-7.63-2.15-12.9-6.05-16.67Z" transform="translate(-130.47 -249.02)"/><path class="cls-1" d="M732.62,658.67c-2.51-4.47-6.82-6.74-12.81-6.76H707.62a289.69,289.69,0,0,0,22.5-112.3C730.12,379.11,600,249,439.54,249A290.23,290.23,0,0,0,200.89,373.79a8.42,8.42,0,0,0-4.41-1.29h-8a8.58,8.58,0,0,0-7,3.68,8.45,8.45,0,0,0-6.91-3.68h-8.84c-1.57,0-5.49.52-7.94,5.29a14.4,14.4,0,0,0-1.5,6.67v9.48c-15.1,7.79-24,22.55-24,41.83,0,19,7.33,32,23.46,41.09-.31,1.41-.63,2.82-.92,4.24H130.47V495c0,18.8,6.6,33.13,18.52,41.73,0,.94,0,1.89,0,2.84,0,160.48,130.1,290.58,290.58,290.58a290,290,0,0,0,223.69-105.1,60.9,60.9,0,0,0,10.94,1,64.39,64.39,0,0,0,16.47-2.16c22.64-6,40-26.68,42.32-50.4,0-.13.07-.26.11-.4.09-.33.18-.66.26-1l.2-.83v-11ZM640.29,458.44H699v22.63H640.29Zm-90.74-4.9,9.79-35.36a3.59,3.59,0,0,1,1.32-1.71,3.21,3.21,0,0,1,1.94-.78H596a3.81,3.81,0,0,1,2,.7,3.2,3.2,0,0,1,1.4,1.63L628,521.9v.31a1.65,1.65,0,0,1-1.86,1.87H610.3a3.32,3.32,0,0,1-2-.7,3.36,3.36,0,0,1-1.24-1.63l-7.77-28.91a4.82,4.82,0,0,0-1.71-2.33,4.4,4.4,0,0,0-2.64-.93H571.45a2.39,2.39,0,0,1-1.78-.7,2.2,2.2,0,0,1-.7-1.63v-12a2.49,2.49,0,0,1,.7-1.71,2.28,2.28,0,0,1,1.78-.78H590.1a2.78,2.78,0,0,0,2.25-1,2.35,2.35,0,0,0,.39-2.41L584,437.69a4,4,0,0,0-1.55-2.18,4.34,4.34,0,0,0-2.64-.93h-1.09a4.15,4.15,0,0,0-2.49.93,3.86,3.86,0,0,0-1.55,2.18L569,458.51a2.38,2.38,0,0,1-1.17,1.39,2.43,2.43,0,0,1-1.94.16l-14.6-3.57a2.05,2.05,0,0,1-1.48-1.09A2.17,2.17,0,0,1,549.55,453.54ZM501.38,419a3.47,3.47,0,0,1,3.26-3.26h16.72a3,3,0,0,1,2.32,1,3.23,3.23,0,0,1,.93,2.25v82.37a3.23,3.23,0,0,0,.93,2.25,2.86,2.86,0,0,0,2.17,1h37.47a3.14,3.14,0,0,1,2.32.93,3,3,0,0,1,.93,2.17V521a3.18,3.18,0,0,1-3.25,3.25H504.64a3.23,3.23,0,0,1-2.25-.93,3,3,0,0,1-1-2.32Zm-66.29,0a3.47,3.47,0,0,1,3.25-3.26h16.72a3.05,3.05,0,0,1,2.33,1,3.23,3.23,0,0,1,.93,2.25v82.37a3.23,3.23,0,0,0,.93,2.25,2.86,2.86,0,0,0,2.16,1h23.47a3.17,3.17,0,0,1,2.33.93,3,3,0,0,1,.93,2.17V521a3.18,3.18,0,0,1-3.26,3.25H438.34a3.21,3.21,0,0,1-2.24-.93,3,3,0,0,1-1-2.32Zm-47.4-.66a2.71,2.71,0,0,1,.93-2.09,2.89,2.89,0,0,1,2-.86h15.48a2.69,2.69,0,0,1,1.94.86,2.85,2.85,0,0,1,.85,2.09V521.1a2.84,2.84,0,0,1-.77,1.94,2.6,2.6,0,0,1-2,.85H390.63a2.81,2.81,0,0,1-2.09-.85,2.67,2.67,0,0,1-.85-1.94Zm-193.09,115v17.26a7.94,7.94,0,0,1-.59,3.13q-.6,1.38-1.53,1.38h-8q-.94,0-1.59-1.38a7.3,7.3,0,0,1-.65-3.13V535.05c-1.3.06-2.63.1-4,.1-.51,0-1,0-1.51,0v15.45a7.77,7.77,0,0,1-.59,3.13q-.58,1.38-1.53,1.38h-8.84q-.94,0-1.59-1.38a7.15,7.15,0,0,1-.65-3.13V533.32c-20.17-5.6-25.22-23.07-25.22-38.29V491.9h21v3.31c0,7.15,1.4,12.71,4.24,16.69V470.17c-16.27-7.2-23.38-17-23.38-34.4,0-17.66,8.83-29.5,23.38-34.49V384.46a7.35,7.35,0,0,1,.7-3.38c.47-.91,1-1.38,1.54-1.38h8.84c.55,0,1,.47,1.48,1.38a7.93,7.93,0,0,1,.64,3.38v14.28c1.4-.09,2.82-.14,4.27-.14l1.23,0V384.46a7.35,7.35,0,0,1,.71-3.38c.47-.91,1-1.38,1.53-1.38h8c.54,0,1,.47,1.47,1.38a7.93,7.93,0,0,1,.65,3.38V400c21,4.93,23.53,21.68,23.53,33.18v2.94h-21v-2.76c0-4.64-.81-8.52-2.55-11.55v38.84l.35.13c18.58,6.63,26.68,16.75,26.68,34.78C221.63,517.24,211.48,529.07,194.6,533.31Zm85.77-9H264.58a13.22,13.22,0,0,1-4.72-.85,5.86,5.86,0,0,1-2.41-2.09L241,498a5.69,5.69,0,0,1-1.08-2.79,4.77,4.77,0,0,1,1.24-2.94c.82-.93,1.78-2,2.86-3.33s2.14-2.5,3.17-3.64l3.26-3.87a2.67,2.67,0,0,1,2.17-1.24,2.73,2.73,0,0,1,2.32,1.39L282.85,521a2.56,2.56,0,0,1,.31,1.08C283.16,523.44,282.23,524.17,280.37,524.27Zm3.1-106.69-56.36,66c-1.66,2-2.48-29.27-2.48-29.27l31.43-36.85a4.26,4.26,0,0,1,3.41-1.71h22.14c1.13,0,1.81.21,2,.62A1.1,1.1,0,0,1,283.47,417.58Zm50.84,67a9.81,9.81,0,0,0-3.09-.31H318.05a6.13,6.13,0,0,0-2.86.54,2.32,2.32,0,0,0-1,2.25V521.1a2.56,2.56,0,0,1-.85,2,3,3,0,0,1-2.09.78H299.16a3,3,0,0,1-2.09-.78,2.56,2.56,0,0,1-.85-2v-54a2.84,2.84,0,0,1,.85-2.09,2.88,2.88,0,0,1,2.09-.85h32.06a14.35,14.35,0,0,0,10.45-4.18,13.6,13.6,0,0,0,4.26-10.07,13.75,13.75,0,0,0-4.26-10.21,14.35,14.35,0,0,0-10.45-4.19h-13a3.89,3.89,0,0,0-2.87,1.17,3.71,3.71,0,0,0-1.16,2.71v3.87a3.87,3.87,0,0,1-1.08,2.71,3.67,3.67,0,0,1-2.79,1.16H300.09a4,4,0,0,1-3.87-3.87V418.29a2.81,2.81,0,0,1,.85-2.09,2.85,2.85,0,0,1,2.09-.86h32.06A34.7,34.7,0,0,1,348.87,420a35.14,35.14,0,0,1,12.77,12.54,33.79,33.79,0,0,1,1.08,32.52,34.26,34.26,0,0,1-10,11.92,1.83,1.83,0,0,0-.93,1.55,6.71,6.71,0,0,0,.15,1.55l18,40.1a4.16,4.16,0,0,1,.61,2c0,1.13-.72,1.7-2.16,1.7h-12.7a7.86,7.86,0,0,1-2.56-.31,2.94,2.94,0,0,1-1.47-1.55l-16.1-36.23A2.41,2.41,0,0,0,334.31,484.56ZM449.36,669.44a16.89,16.89,0,0,0-.54,2.29c-2,20.9-17.58,39.8-37.69,45.1a55.89,55.89,0,0,1-70-45.36c-4.29-28.4,12.65-55.15,40.06-62.86a54.94,54.94,0,0,1,20.19-1.82,88.54,88.54,0,0,1,15.95,2.57c.67.19,1.35.37,2,.61,2.33.85,2.7,1.5,2.23,4.11q-1.05,5.89-2.2,11.78c-.57,3-1.53,3.66-4.6,3.25-4.46-.59-9-1-13.35-1.93-14.94-3.34-35.55,6.83-40.14,27.94A36,36,0,0,0,389,697.94c18.42,3.95,32.91-6.13,39.21-21.14a8.26,8.26,0,0,0,.24-1.44h-3.08c-5.1,0-10.2,0-15.31,0-3.17,0-4.19-1-4.25-4.05s-.07-6.4,0-9.6c.07-2.83,1-3.79,3.83-3.8q16.51,0,33,0c2.69,0,5.2.5,6.67,3.13ZM539.42,719q-7.3.09-14.62,0c-2,0-2.9-1.28-3.38-3.15-1.9-7.41-3.89-17.58-5.84-25-.46-1.73-.85-3.48-1.38-5.19-.73-2.37-2.08-3.46-4.59-3.47q-14.48-.08-28.95,0c-2.55,0-3.79,1-4.6,3.42-1.56,4.72-3.05,9.46-4.57,14.19-1,3.22-1.67,3.7-5.15,3.72q-5.67,0-11.34,0c-3.65,0-4.07-.54-3.13-4q4.26-15.69,8.55-31.35,2.79-10.2,5.57-20.41c.15-.57.35-1.12.68-2.13l17.24,10.17c-.56,2.12-1.12,4-1.55,6-.6,2.6.29,3.8,3,3.83q9.56.09,19.1,0c3.25,0,4.22-1.37,3.35-4.61-2.45-9.12-4.95-18.22-7.44-27.32-.26-1-.5-1.93-.8-2.87a4.66,4.66,0,0,0-9,0c-.85,3.06-1.64,6.13-2.58,9.64l-17.13-10.07c.14-.76.22-1.43.39-2.07,1.44-5.37,2.58-9.41,4.05-14.77.86-3.15,1.53-3.67,4.82-3.68q14.64,0,29.26,0c3.45,0,4,.46,4.93,3.9,8.78,33.33,17.87,68.11,26.64,101.45a8.29,8.29,0,0,1,.32,1.46C541.46,718.37,541.05,719,539.42,719ZM630,715.66c-.06,2.44-.82,3.29-3.23,3.32-7.06.07-14.12,0-21.18,0a3.67,3.67,0,0,1-3.25-1.77l-1.14-1.75q-18.93-29.49-37.86-59c-.52-.81-1.13-1.56-1.7-2.34-1.29.68-.92,1.67-.91,2.47.08,4.57.22,9.14.33,13.72a29.62,29.62,0,0,1,0,3c-.17,1.94-1.09,2.89-3,2.92q-7.31.11-14.62,0c-2,0-2.84-1-3-3a17.78,17.78,0,0,1,0-1.79c0-18.19-.51-38.24-.5-56.44,0-.6,0-1.2,0-1.79.18-2.08,1.12-3.2,3.14-3.24,4.87-.09,9.74,0,14.62,0a2.94,2.94,0,0,1,2.61,1.69c.92,1.54,1.85,3.06,2.78,4.59,11.25,18.75,23,39.36,34.27,58.1.59,1,1.3,1.9,2,2.85l.91-.17a22.19,22.19,0,0,0,.33-2.81c0-18.9,0-39.64-.08-58.53,0-.4,0-.8,0-1.19,0-3.77.79-4.52,4.58-4.53q10.44,0,20.89,0c3.45,0,4.19.78,4.26,4.2a6,6,0,0,0,0,.6A13.41,13.41,0,0,1,626.8,625a55.61,55.61,0,0,0,1.29,77.33A5.69,5.69,0,0,1,630,707C629.89,709.89,630.05,712.78,630,715.66Zm96.36-45.22a17.9,17.9,0,0,0-.53,2.25c-1.92,20.51-17.25,39.06-37,44.26a54.85,54.85,0,0,1-68.7-44.52c-4.22-27.87,12.41-54.12,39.32-61.69A53.72,53.72,0,0,1,679.24,609a87,87,0,0,1,15.65,2.52c.66.19,1.33.37,2,.6,2.28.83,2.65,1.47,2.19,4-.69,3.86-1.42,7.72-2.16,11.57-.57,2.91-1.5,3.59-4.52,3.19-4.37-.59-8.8-.93-13.1-1.9-14.66-3.28-34.89,6.7-39.4,27.43a35.35,35.35,0,0,0,27.26,42c18.07,3.88,32.3-6,38.48-20.75a7.82,7.82,0,0,0,.24-1.41h-3c-5,0-10,0-15,0-3.11,0-4.12-1-4.18-4s-.06-6.29,0-9.42c.06-2.79,1-3.73,3.76-3.74q16.2,0,32.4,0c2.64,0,5.1.5,6.54,3.08ZM690.1,686.81c.66-1.12,1.32-2.23,2-3.36h1.6A26.73,26.73,0,0,1,690.1,686.81Z" transform="translate(-130.47 -249.02)"/></svg>